<?xml version="1.0" encoding="iso-8859-1"?>
<!-- Generator: Adobe Illustrator 19.0.0, SVG Export Plug-In . SVG Version: 6.00 Build 0)  -->
<svg fill="#ffffff" version="1.1" id="Capa_1" xmlns="http://www.w3.org/2000/svg" xmlns:xlink="http://www.w3.org/1999/xlink" x="0px" y="0px"
	 viewBox="0 0 512 512" style="enable-background:new 0 0 512 512;" xml:space="preserve">
<g>
	<g>
		<path d="M337.182,331.683h-76.76c-6.433,20.79-25.835,35.935-48.71,35.935c-28.11,0-50.978-22.869-50.978-50.978
			c0-28.109,22.869-50.978,50.978-50.978c22.875,0,42.277,15.146,48.71,35.936h59.322L459.479,57.636L256,0l-2.978,0.843
			l-75.291,131.45H45.813v215.563c0,10.395,1.832,20.494,5.254,29.927l123.752-216.057h76.761
			c6.433-20.79,25.835-35.935,48.71-35.935c28.11,0,50.978,22.869,50.978,50.978c0,28.11-22.869,50.978-50.978,50.978
			c-22.875,0-42.277-15.146-48.71-35.935h-59.322L68.91,407.16c6.625,7.194,14.516,13.339,23.463,18.084l102.824,54.518
			l53.501-93.407h208.597c5.751-11.766,8.893-24.879,8.893-38.498V106.453L337.182,331.683z"/>
	</g>
</g>
<g>
	<g>
		<path d="M266.135,416.438L266.135,416.438l-44.345,77.424L256,512l163.628-86.758c4.802-2.546,9.293-5.504,13.456-8.805H266.135z"
			/>
	</g>
</g>
<g>
	<g>
		<polygon points="45.813,59.536 45.813,102.21 160.293,102.21 211.638,12.566 		"/>
	</g>
</g>
<g>
	<g>
		<path d="M211.712,295.747c-11.521,0-20.893,9.373-20.893,20.893c0,11.521,9.373,20.893,20.893,20.893s20.893-9.373,20.893-20.893
			C232.605,305.119,223.233,295.747,211.712,295.747z"/>
	</g>
</g>
<g>
	<g>
		<path d="M300.289,155.875c-11.52,0-20.893,9.373-20.893,20.893c0,11.52,9.372,20.893,20.893,20.893s20.893-9.373,20.893-20.893
			C321.183,165.247,311.81,155.875,300.289,155.875z"/>
	</g>
</g>
<g>
</g>
<g>
</g>
<g>
</g>
<g>
</g>
<g>
</g>
<g>
</g>
<g>
</g>
<g>
</g>
<g>
</g>
<g>
</g>
<g>
</g>
<g>
</g>
<g>
</g>
<g>
</g>
<g>
</g>
</svg>
